# xmcd CD database file
#
# Track frame offsets:
#	150
#	12807
#	29420
#	42149
#	58276
#	83525
#	99276
#	114553
#	128337
#	141303
#	158476
#	178805
#
# Disc length: 2530 seconds
#
# Revision: 2
# Processed by: cddbd v1.5.2PL0 Copyright (c) Steve Scherf et al.
# Submitted via: CDex 1.70beta2
#
DISCID=8e09e00c
DTITLE=Sony Music Custom Marketing Group - Kickin' Back Country - Kohl's Cares For Kids
DYEAR=2010
DGENRE=Country
TTITLE0=Summer's Comin' ( 1995 ) - Clint Black
TTITLE1=Six Pack Summer ( 2001 ) - Phil Vassar
TTITLE2=California Girls ( 2006 ) - Gretchen Wilson
TTITLE3=All Night Long ( 1999 ) - Montgomery Gentry and Charlie Daniels
TTITLE4=Born to Fly ( 2000 ) - Sara Evans
TTITLE5=If I Can Find A Clean Shirt ( 1991 ) - Waylon Jennings and Willie Nelson
TTITLE6=Down At The Twist And Shout ( 1991 ) - Mary Chapin Carpenter
TTITLE7=Watermelon Crawl ( 1994 ) - Tracy Byrd
TTITLE8=Mi Vida Loca (My Crazy Life) ( 1994 ) - Pam Tillis
TTITLE9=Feels Just Like it Should ( 2006 ) - Pat Green
TTITLE10=Sweet Summer ( 2001 ) - Diamond Rio
TTITLE11=I Got Mexico ( 1984 ) - Eddy Raven
EXTD=This Comppilation  2010 Sony Music  Entertainment. YEAR: 2010
EXTT0=
EXTT1=
EXTT2=
EXTT3=
EXTT4=
EXTT5=
EXTT6=
EXTT7=
EXTT8=
EXTT9=
EXTT10=
EXTT11=
PLAYORDER=
